<svg width="1021" height="221" viewBox="0 0 1021 221" fill="none" xmlns="http://www.w3.org/2000/svg">
<path d="M575 221L373 0H1020.5V221H575Z" fill="#271F47"/>
<path fill-rule="evenodd" clip-rule="evenodd" d="M13.7311 98.6821L48.5625 133.513H13.7311V98.6821Z" fill="#BBD034"/>
<path fill-rule="evenodd" clip-rule="evenodd" d="M117.499 127.669C111.1 127.669 106.089 122.4 106.089 115.673C106.089 108.72 110.832 103.674 117.368 103.674C123.909 103.674 128.842 108.832 128.842 115.673C128.842 122.624 124.071 127.669 117.499 127.669ZM117.499 98.5381C107.67 98.5381 99.9712 106.065 99.9712 115.673C99.9712 125.244 107.612 132.741 117.368 132.741C127.232 132.741 134.96 125.244 134.96 115.673C134.96 105.904 127.453 98.5381 117.499 98.5381Z" fill="#271F47"/>
<path fill-rule="evenodd" clip-rule="evenodd" d="M147.412 115.673C147.412 108.832 152.065 103.674 158.233 103.674C162.497 103.674 165.151 105.598 167.165 107.583L170.861 103.593C167.447 100.099 163.554 98.5381 158.299 98.5381C148.765 98.5381 141.295 106.065 141.295 115.673C141.295 125.244 148.736 132.741 158.233 132.741C164.837 132.741 168.463 129.991 171.102 127.198L167.576 123.721C164.714 126.448 161.937 127.669 158.625 127.669C152.234 127.669 147.412 122.512 147.412 115.673Z" fill="#271F47"/>
<path fill-rule="evenodd" clip-rule="evenodd" d="M215.146 99.2551H208.607L222.054 132.22H227.972L241.356 99.2551H235.009L225.043 126.298L215.146 99.2551Z" fill="#271F47"/>
<path fill-rule="evenodd" clip-rule="evenodd" d="M249.564 131.958H255.681V99.2551H249.564V131.958Z" fill="#271F47"/>
<path fill-rule="evenodd" clip-rule="evenodd" d="M326.42 127.669C320.022 127.669 315.01 122.4 315.01 115.673C315.01 108.72 319.754 103.674 326.288 103.674C332.831 103.674 337.764 108.832 337.764 115.673C337.764 122.624 332.993 127.669 326.42 127.669ZM326.42 98.5381C316.592 98.5381 308.893 106.065 308.893 115.673C308.893 125.244 316.534 132.741 326.288 132.741C336.155 132.741 343.883 125.244 343.883 115.673C343.883 105.904 336.375 98.5381 326.42 98.5381Z" fill="#271F47"/>
<path fill-rule="evenodd" clip-rule="evenodd" d="M87.1618 116.806C86.6211 123.218 81.9767 127.669 75.8674 127.669C69.4687 127.669 64.4562 122.4 64.4562 115.673C64.4562 108.72 69.1995 103.674 75.7352 103.674C81.8135 103.674 86.6176 108.238 87.1594 114.525L87.1618 116.806ZM75.8674 98.5381C66.0389 98.5381 58.3398 106.065 58.3398 115.673C58.3398 125.244 65.9806 132.741 75.7352 132.741C79.3972 132.741 82.8686 131.719 85.7744 129.786L87.1618 128.862V132.627H93.5629V85.6621H87.1618V102.338L85.7768 101.426C82.9115 99.5361 79.4841 98.5381 75.8674 98.5381Z" fill="#271F47"/>
<path fill-rule="evenodd" clip-rule="evenodd" d="M364.817 99.3503C362.262 99.3503 359.754 99.9803 357.564 101.169L356.244 101.887V98.3142H350.125L350.12 113.604L350.121 132.553H356.248V113.428C356.398 108.276 359.878 104.688 364.711 104.688C367.102 104.688 369.305 105.622 370.912 107.316C372.515 109.005 373.398 111.322 373.394 113.841V132.553H379.483V113.747C379.483 105.675 373.042 99.3503 364.817 99.3503Z" fill="#271F47"/>
<path fill-rule="evenodd" clip-rule="evenodd" d="M296.11 131.958H302.225V99.2551H296.11V131.958Z" fill="#271F47"/>
<path fill-rule="evenodd" clip-rule="evenodd" d="M202.122 103.593C198.708 100.099 194.815 98.5381 189.56 98.5381C182.969 98.6262 178.181 102.786 178.181 108.428C178.181 111.177 179.232 113.289 181.396 114.886C183.352 116.249 185.834 117.122 188.007 117.798C188.112 117.835 188.209 117.863 188.306 117.891C188.446 117.931 188.57 117.966 188.677 118.002L188.881 118.069C192.921 119.391 196.406 120.532 196.406 123.487C196.406 124.763 195.706 127.734 189.212 127.77C185.864 127.77 182.759 126.41 179.909 123.727L176.383 127.203C180.09 131.087 183.991 132.749 189.348 132.749L190.473 132.725C197.079 132.635 201.871 128.475 201.871 122.834C201.871 120.092 200.826 117.985 198.675 116.392C196.699 115.012 194.219 114.139 192.046 113.464C191.954 113.43 191.868 113.406 191.782 113.383L191.662 113.347L191.158 113.189C187.126 111.868 183.646 110.728 183.646 107.775C183.646 105.304 185.966 103.697 189.555 103.68C193.774 103.68 196.417 105.6 198.426 107.583L202.122 103.593Z" fill="#271F47"/>
<path fill-rule="evenodd" clip-rule="evenodd" d="M288.462 103.593C285.049 100.099 281.156 98.5381 275.9 98.5381C269.31 98.6262 264.521 102.786 264.521 108.428C264.521 111.177 265.573 113.289 267.736 114.886C269.692 116.249 272.174 117.122 274.347 117.798C274.452 117.835 274.55 117.863 274.646 117.891C274.787 117.931 274.91 117.966 275.018 118.002L275.221 118.069C279.261 119.391 282.747 120.532 282.747 123.487C282.747 124.763 282.046 127.734 275.552 127.77C272.205 127.77 269.099 126.41 266.249 123.727L262.723 127.203C266.43 131.087 270.331 132.749 275.688 132.749L276.814 132.725C283.419 132.635 288.212 128.475 288.212 122.834C288.212 120.092 287.166 117.985 285.015 116.392C283.04 115.012 280.559 114.139 278.387 113.464C278.294 113.43 278.208 113.406 278.122 113.383L278.002 113.347L277.498 113.189C273.466 111.868 269.986 110.728 269.986 107.775C269.986 105.304 272.306 103.697 275.895 103.68C280.115 103.68 282.757 105.6 284.766 107.583L288.462 103.593Z" fill="#271F47"/>
<path fill-rule="evenodd" clip-rule="evenodd" d="M252.619 92.0633C254.301 92.0633 255.668 90.6961 255.668 89.0146C255.668 87.3342 254.301 85.967 252.619 85.967C250.939 85.967 249.57 87.3342 249.57 89.0146C249.57 90.6961 250.939 92.0633 252.619 92.0633Z" fill="#271F47"/>
<path fill-rule="evenodd" clip-rule="evenodd" d="M299.049 92.0633C300.73 92.0633 302.097 90.6961 302.097 89.0146C302.097 87.3342 300.73 85.967 299.049 85.967C297.368 85.967 296 87.3342 296 89.0146C296 90.6961 297.368 92.0633 299.049 92.0633Z" fill="#271F47"/>
<path fill-rule="evenodd" clip-rule="evenodd" d="M574.731 98.6821L609.563 133.513H574.731V98.6821Z" fill="#BBD034"/>
<path fill-rule="evenodd" clip-rule="evenodd" d="M678.499 127.669C672.1 127.669 667.089 122.4 667.089 115.673C667.089 108.72 671.832 103.674 678.368 103.674C684.909 103.674 689.842 108.832 689.842 115.673C689.842 122.624 685.071 127.669 678.499 127.669ZM678.499 98.5381C668.67 98.5381 660.971 106.065 660.971 115.673C660.971 125.244 668.612 132.741 678.368 132.741C688.232 132.741 695.96 125.244 695.96 115.673C695.96 105.904 688.454 98.5381 678.499 98.5381Z" fill="white"/>
<path fill-rule="evenodd" clip-rule="evenodd" d="M708.412 115.673C708.412 108.832 713.065 103.674 719.233 103.674C723.497 103.674 726.151 105.598 728.165 107.583L731.861 103.593C728.447 100.099 724.554 98.5381 719.299 98.5381C709.765 98.5381 702.295 106.065 702.295 115.673C702.295 125.244 709.736 132.741 719.233 132.741C725.837 132.741 729.463 129.991 732.102 127.198L728.576 123.721C725.714 126.448 722.937 127.669 719.625 127.669C713.234 127.669 708.412 122.512 708.412 115.673Z" fill="white"/>
<path fill-rule="evenodd" clip-rule="evenodd" d="M776.146 99.2551H769.607L783.054 132.22H788.972L802.356 99.2551H796.009L786.043 126.298L776.146 99.2551Z" fill="white"/>
<path fill-rule="evenodd" clip-rule="evenodd" d="M810.565 131.958H816.681V99.2551H810.565V131.958Z" fill="white"/>
<path fill-rule="evenodd" clip-rule="evenodd" d="M887.42 127.669C881.022 127.669 876.01 122.4 876.01 115.673C876.01 108.72 880.754 103.674 887.288 103.674C893.831 103.674 898.764 108.832 898.764 115.673C898.764 122.624 893.993 127.669 887.42 127.669ZM887.42 98.5381C877.592 98.5381 869.893 106.065 869.893 115.673C869.893 125.244 877.534 132.741 887.288 132.741C897.155 132.741 904.883 125.244 904.883 115.673C904.883 105.904 897.375 98.5381 887.42 98.5381Z" fill="white"/>
<path fill-rule="evenodd" clip-rule="evenodd" d="M648.162 116.806C647.621 123.218 642.977 127.669 636.867 127.669C630.469 127.669 625.456 122.4 625.456 115.673C625.456 108.72 630.2 103.674 636.735 103.674C642.814 103.674 647.618 108.238 648.159 114.525L648.162 116.806ZM636.867 98.5381C627.039 98.5381 619.34 106.065 619.34 115.673C619.34 125.244 626.981 132.741 636.735 132.741C640.397 132.741 643.869 131.719 646.774 129.786L648.162 128.862V132.627H654.563V85.6621H648.162V102.338L646.777 101.426C643.912 99.5361 640.484 98.5381 636.867 98.5381Z" fill="white"/>
<path fill-rule="evenodd" clip-rule="evenodd" d="M925.817 99.3503C923.262 99.3503 920.754 99.9803 918.564 101.169L917.244 101.887V98.3142H911.126L911.12 113.604L911.121 132.553H917.248V113.428C917.398 108.276 920.878 104.688 925.711 104.688C928.102 104.688 930.305 105.622 931.912 107.316C933.515 109.005 934.398 111.322 934.394 113.841V132.553H940.483V113.747C940.483 105.675 934.042 99.3503 925.817 99.3503Z" fill="white"/>
<path fill-rule="evenodd" clip-rule="evenodd" d="M857.11 131.958H863.225V99.2551H857.11V131.958Z" fill="white"/>
<path fill-rule="evenodd" clip-rule="evenodd" d="M763.122 103.593C759.708 100.099 755.815 98.5381 750.56 98.5381C743.969 98.6262 739.181 102.786 739.181 108.428C739.181 111.177 740.232 113.289 742.396 114.886C744.352 116.249 746.834 117.122 749.007 117.798C749.112 117.835 749.209 117.863 749.306 117.891C749.446 117.931 749.57 117.966 749.677 118.002L749.881 118.069C753.921 119.391 757.406 120.532 757.406 123.487C757.406 124.763 756.706 127.734 750.212 127.77C746.865 127.77 743.759 126.41 740.909 123.727L737.383 127.203C741.09 131.087 744.991 132.749 750.348 132.749L751.473 132.725C758.079 132.635 762.871 128.475 762.871 122.834C762.871 120.092 761.826 117.985 759.675 116.392C757.699 115.012 755.219 114.139 753.047 113.464C752.954 113.43 752.868 113.406 752.782 113.383L752.662 113.347L752.158 113.189C748.126 111.868 744.646 110.728 744.646 107.775C744.646 105.304 746.966 103.697 750.555 103.68C754.775 103.68 757.417 105.6 759.426 107.583L763.122 103.593Z" fill="white"/>
<path fill-rule="evenodd" clip-rule="evenodd" d="M849.462 103.593C846.049 100.099 842.156 98.5381 836.9 98.5381C830.31 98.6262 825.521 102.786 825.521 108.428C825.521 111.177 826.573 113.289 828.736 114.886C830.692 116.249 833.174 117.122 835.347 117.798C835.452 117.835 835.55 117.863 835.646 117.891C835.787 117.931 835.911 117.966 836.018 118.002L836.221 118.069C840.261 119.391 843.747 120.532 843.747 123.487C843.747 124.763 843.046 127.734 836.552 127.77C833.205 127.77 830.099 126.41 827.249 123.727L823.723 127.203C827.43 131.087 831.331 132.749 836.688 132.749L837.814 132.725C844.419 132.635 849.212 128.475 849.212 122.834C849.212 120.092 848.166 117.985 846.015 116.392C844.04 115.012 841.559 114.139 839.387 113.464C839.294 113.43 839.208 113.406 839.122 113.383L839.002 113.347L838.498 113.189C834.466 111.868 830.986 110.728 830.986 107.775C830.986 105.304 833.306 103.697 836.895 103.68C841.115 103.68 843.757 105.6 845.766 107.583L849.462 103.593Z" fill="white"/>
<path fill-rule="evenodd" clip-rule="evenodd" d="M813.619 92.0633C815.301 92.0633 816.668 90.6961 816.668 89.0146C816.668 87.3342 815.301 85.967 813.619 85.967C811.939 85.967 810.57 87.3342 810.57 89.0146C810.57 90.6961 811.939 92.0633 813.619 92.0633Z" fill="white"/>
<path fill-rule="evenodd" clip-rule="evenodd" d="M860.049 92.0633C861.73 92.0633 863.097 90.6961 863.097 89.0146C863.097 87.3342 861.73 85.967 860.049 85.967C858.368 85.967 857 87.3342 857 89.0146C857 90.6961 858.368 92.0633 860.049 92.0633Z" fill="white"/>
</svg>
