<svg width="4617" height="2848" viewBox="0 0 4617 2848" fill="none" xmlns="http://www.w3.org/2000/svg">
<path d="M1270.59 850.442C1343.84 729.633 1386 587.887 1386 436.293C1386 379.227 1380.03 323.557 1368.67 269.875C1303.85 423.061 1268 591.491 1268 768.293C1268 795.889 1268.87 823.281 1270.59 850.442Z" fill="#969696"/>
<path d="M1178 974.39C1212.68 936.256 1243.73 894.758 1270.59 850.442C1268.87 823.281 1268 795.889 1268 768.293C1268 591.491 1303.85 423.061 1368.67 269.875C1365.66 255.655 1362.27 241.574 1358.52 227.644C1125.57 456.749 979.927 774.359 976.078 1126C1034.7 1065.43 1102.8 1014.09 1178 974.39Z" fill="#969696"/>
<path d="M976.02 1133.05C976.967 1133.15 977.913 1133.25 978.86 1133.35C1053.51 1091.19 1120.71 1037.38 1178 974.39C1102.8 1014.09 1034.7 1065.43 976.078 1126C976.052 1128.35 976.033 1130.7 976.02 1133.05Z" fill="#969696"/>
<path d="M1222.91 952.45C1207.68 959.307 1192.7 966.626 1178 974.39C1120.71 1037.38 1053.51 1091.19 978.86 1133.35C1022.95 1137.94 1067.7 1140.29 1113 1140.29C1129.41 1140.29 1145.74 1139.98 1162 1139.37C1162.2 1069.54 1184.76 1004.97 1222.91 952.45Z" fill="#969696"/>
<path d="M1317.41 1121.7C1299.61 1059.61 1286.39 995.599 1278.12 930.039C1259.38 936.839 1240.97 944.319 1222.91 952.45C1184.76 1004.97 1162.2 1069.54 1162 1139.37C1213.19 1137.45 1263.61 1132.51 1313.09 1124.75C1314.53 1123.72 1315.97 1122.71 1317.41 1121.7Z" fill="#969696"/>
<path d="M1736.86 978.234C1742.11 975.297 1747.34 972.324 1752.54 969.316C1734.41 940.684 1711.86 915.129 1685.84 893.609C1642.01 886.168 1596.96 882.293 1551 882.293C1455.17 882.293 1363.28 899.142 1278.12 930.039C1286.39 995.599 1299.61 1059.61 1317.41 1121.7C1437.28 1037.7 1581.23 985.731 1736.86 978.234Z" fill="#969696"/>
<path d="M1318.06 1123.96C1467.96 1099.82 1609.16 1049.65 1736.86 978.234C1581.23 985.731 1437.28 1037.7 1317.41 1121.7L1317.73 1122.8L1318.06 1123.96Z" fill="#969696"/>
<path d="M1752.54 969.316C1775.09 956.283 1797.21 942.582 1818.87 928.24C1776.09 913.041 1731.63 901.38 1685.84 893.609C1711.86 915.129 1734.41 940.684 1752.54 969.316Z" fill="#969696"/>
<path d="M976.011 1134.95C976.004 1136.73 976 1138.51 976 1140.29C976 1264.15 993.592 1383.9 1026.41 1497.17C1061.51 1403.29 1113.75 1317.76 1179.31 1244.4C1168.09 1211.76 1162 1176.74 1162 1140.29L1162 1140.01L1162 1139.37C1145.74 1139.98 1129.41 1140.29 1113 1140.29C1067.7 1140.29 1022.95 1137.94 978.86 1133.35L977.488 1134.12C976.996 1134.4 976.504 1134.67 976.011 1134.95Z" fill="#969696"/>
<path d="M1179.31 1244.4C1113.75 1317.76 1061.51 1403.29 1026.41 1497.17C1133.45 1866.58 1402.44 2167.17 1751.46 2317.02C1811.11 2165.73 1915.53 2036.98 2048.41 1947.13C1810.42 1846.14 1609.31 1675.2 1470.88 1460.1C1335.44 1455.48 1221.37 1366.69 1179.31 1244.4Z" fill="#969696"/>
<path d="M1470.88 1460.1C1609.31 1675.2 1810.42 1846.14 2048.41 1947.13C2102.91 1910.27 2162.21 1879.95 2225.17 1857.3L1482 1460.29C1478.28 1460.29 1474.57 1460.23 1470.88 1460.1Z" fill="#969696"/>
<path d="M2338.15 1825.86C2346.59 1779.28 2351 1731.3 2351 1682.29C2351 1605.27 2340.11 1530.78 2319.8 1460.29H1482L2225.17 1857.3C2261.67 1844.17 2299.41 1833.62 2338.15 1825.86Z" fill="#969696"/>
<path d="M2576 1779.22C2576 1778.58 2576 1777.94 2576 1777.29C2576 1664.68 2552.73 1557.49 2510.74 1460.29H2319.8C2340.11 1530.78 2351 1605.27 2351 1682.29C2351 1731.3 2346.59 1779.28 2338.15 1825.86C2350.48 1823.39 2362.92 1821.21 2375.45 1819.32C2439.08 1797.78 2506.31 1784.04 2576 1779.22Z" fill="#969696"/>
<path d="M2809.23 1796.99L3115.33 1649.92C3113.15 1639.39 3112 1628.47 3112 1617.29C3112 1539.53 3167.47 1474.73 3241 1460.29H2510.74C2552.73 1557.49 2576 1664.68 2576 1777.29C2576 1777.94 2576 1778.58 2576 1779.22C2594.5 1777.94 2613.17 1777.29 2632 1777.29C2692.91 1777.29 2752.22 1784.1 2809.23 1796.99Z" fill="#969696"/>
<path d="M3241 1460.29C3167.47 1474.73 3112 1539.53 3112 1617.29C3112 1628.47 3113.15 1639.39 3115.33 1649.92L3395.35 1515.38C3372.27 1487.48 3339.91 1467.54 3303 1460.29H3241Z" fill="#969696"/>
<path d="M3115.33 1649.92C3130.4 1722.64 3194.82 1777.29 3272 1777.29C3326.06 1777.29 3373.86 1750.48 3402.83 1709.43C3411.06 1692.87 3418.94 1676.12 3426.46 1659.17C3430.07 1645.82 3432 1631.78 3432 1617.29C3432 1578.57 3418.24 1543.06 3395.35 1515.38L3115.33 1649.92Z" fill="#969696"/>
<path d="M3392.06 1730.59C3395.71 1723.57 3399.3 1716.52 3402.83 1709.43C3373.86 1750.48 3326.06 1777.29 3272 1777.29C3194.82 1777.29 3130.4 1722.64 3115.33 1649.92L2809.23 1796.99C2914.08 1820.71 3011.13 1865.01 3095.89 1925.44C3203.76 1874.27 3303.34 1808.47 3392.06 1730.59Z" fill="#969696"/>
<path d="M3195.6 2009.53C3272.83 1926.09 3339.08 1832.34 3392.06 1730.59C3303.34 1808.47 3203.76 1874.27 3095.89 1925.44C3131.39 1950.75 3164.74 1978.89 3195.6 2009.53Z" fill="#969696"/>
<path d="M3108.25 2095.34C3138.71 2068.13 3167.86 2039.5 3195.6 2009.53C3164.74 1978.89 3131.39 1950.75 3095.89 1925.44C3058.32 1943.26 3019.74 1959.3 2980.27 1973.46C3027.29 2009.27 3070.22 2050.17 3108.25 2095.34Z" fill="#969696"/>
<path d="M3095.89 1925.44C3011.13 1865.01 2914.08 1820.71 2809.23 1796.99L2717.13 1841.25C2813.54 1868.92 2902.49 1914.23 2980.27 1973.46C3019.74 1959.3 3058.32 1943.26 3095.89 1925.44Z" fill="#969696"/>
<path d="M2980.27 1973.46C2902.49 1914.23 2813.54 1868.92 2717.13 1841.25L2564.24 1914.7C2556.29 1960.65 2544.42 2005.25 2528.98 2048.15C2535.31 2048.25 2541.65 2048.29 2548 2048.29C2699.7 2048.29 2845.24 2021.9 2980.27 1973.46Z" fill="#969696"/>
<path d="M2717.13 1841.25L2809.23 1796.99C2752.22 1784.1 2692.91 1777.29 2632 1777.29C2613.17 1777.29 2594.5 1777.94 2576 1779.22C2575.97 1790.93 2575.69 1802.58 2575.17 1814.16C2623.9 1818.95 2671.35 1828.11 2717.13 1841.25Z" fill="#969696"/>
<path d="M2564.24 1914.7L2717.13 1841.25C2671.35 1828.11 2623.9 1818.95 2575.17 1814.16C2573.62 1848.27 2569.93 1881.83 2564.24 1914.7Z" fill="#969696"/>
<path d="M2575.17 1814.16C2575.69 1802.58 2575.97 1790.93 2576 1779.22C2506.31 1784.04 2439.08 1797.78 2375.45 1819.32C2414.77 1813.37 2455.02 1810.29 2496 1810.29C2522.71 1810.29 2549.12 1811.6 2575.17 1814.16Z" fill="#969696"/>
<path d="M2318.9 1907.37L2442.3 1973.29L2564.24 1914.7C2569.93 1881.83 2573.62 1848.27 2575.17 1814.16C2549.12 1811.6 2522.71 1810.29 2496 1810.29C2455.02 1810.29 2414.77 1813.37 2375.45 1819.32C2362.38 1823.74 2349.47 1828.48 2336.72 1833.55C2331.93 1858.59 2325.97 1883.22 2318.9 1907.37Z" fill="#969696"/>
<path d="M2253.39 1872.38L2318.9 1907.37C2325.97 1883.22 2331.93 1858.59 2336.72 1833.55C2308.1 1844.93 2280.28 1857.9 2253.39 1872.38Z" fill="#969696"/>
<path d="M2276.68 2019.48C2293.43 1983.49 2307.59 1946.04 2318.9 1907.37L2253.39 1872.38C2201.85 1900.12 2153.69 1933.35 2109.72 1971.29C2163.76 1990.98 2219.51 2007.14 2276.68 2019.48Z" fill="#969696"/>
<path d="M2528.98 2048.15C2544.42 2005.25 2556.29 1960.65 2564.24 1914.7L2442.3 1973.29L2318.9 1907.37C2307.59 1946.04 2293.43 1983.49 2276.68 2019.48C2358.16 2037.07 2442.54 2046.9 2528.98 2048.15Z" fill="#969696"/>
<path d="M2276.68 2019.48C2219.51 2007.14 2163.76 1990.98 2109.72 1971.29C1992.89 2072.07 1905.52 2206.06 1862.26 2358.59C1888.04 2366.92 1914.18 2374.45 1940.65 2381.15C2087.27 2299.23 2205.46 2172.49 2276.68 2019.48Z" fill="#969696"/>
<path d="M1940.65 2381.15C2040.31 2406.4 2144.63 2419.96 2252.07 2420.29C2377.7 2327.12 2475.07 2198.01 2528.98 2048.15C2442.54 2046.9 2358.16 2037.07 2276.68 2019.48C2205.46 2172.49 2087.27 2299.23 1940.65 2381.15Z" fill="#969696"/>
<path d="M1846.28 2426.03C1837.02 2474.41 1832.12 2524.32 1832 2575.36C1988.76 2564.52 2133.08 2508.53 2252.07 2420.29C2144.63 2419.96 2040.31 2406.4 1940.65 2381.15C1910.35 2398.08 1878.84 2413.1 1846.28 2426.03Z" fill="#969696"/>
<path d="M1862.26 2358.59C1855.99 2380.7 1850.65 2403.19 1846.28 2426.03C1878.84 2413.1 1910.35 2398.08 1940.65 2381.15C1914.18 2374.45 1888.04 2366.92 1862.26 2358.59Z" fill="#969696"/>
<path d="M2252.07 2420.29C2253.38 2420.29 2254.69 2420.29 2256 2420.29C2583.31 2420.29 2881.92 2297.44 3108.25 2095.34C3070.22 2050.17 3027.29 2009.27 2980.27 1973.46C2845.24 2021.9 2699.7 2048.29 2548 2048.29C2541.65 2048.29 2535.31 2048.25 2528.98 2048.15C2475.07 2198.01 2377.7 2327.12 2252.07 2420.29Z" fill="#969696"/>
<path d="M3392.06 1730.59C3395.71 1723.57 3399.3 1716.52 3402.83 1709.43M3392.06 1730.59C3339.08 1832.34 3272.83 1926.09 3195.6 2009.53M3392.06 1730.59C3303.34 1808.47 3203.76 1874.27 3095.89 1925.44M3402.83 1709.43C3413.44 1694.38 3421.53 1677.42 3426.46 1659.17M3402.83 1709.43C3373.86 1750.48 3326.06 1777.29 3272 1777.29C3194.82 1777.29 3130.4 1722.64 3115.33 1649.92M3402.83 1709.43C3411.06 1692.87 3418.94 1676.12 3426.46 1659.17M3426.46 1659.17C3430.07 1645.82 3432 1631.78 3432 1617.29C3432 1578.57 3418.24 1543.06 3395.35 1515.38M1818.87 928.24C1872.38 947.251 1923.27 971.797 1970.85 1001.19M1818.87 928.24C1797.21 942.582 1775.09 956.283 1752.54 969.316M1818.87 928.24C1776.09 913.041 1731.63 901.38 1685.84 893.609M3195.6 2009.53C3167.86 2039.5 3138.71 2068.13 3108.25 2095.34M3195.6 2009.53C3164.74 1978.89 3131.39 1950.75 3095.89 1925.44M3095.89 1925.44C3011.13 1865.01 2914.08 1820.71 2809.23 1796.99M3095.89 1925.44C3058.32 1943.26 3019.74 1959.3 2980.27 1973.46M2809.23 1796.99L3115.33 1649.92M2809.23 1796.99L2717.13 1841.25M2809.23 1796.99C2752.22 1784.1 2692.91 1777.29 2632 1777.29C2613.17 1777.29 2594.5 1777.94 2576 1779.22M3115.33 1649.92C3113.15 1639.39 3112 1628.47 3112 1617.29C3112 1539.53 3167.47 1474.73 3241 1460.29M3115.33 1649.92L3395.35 1515.38M3395.35 1515.38C3372.27 1487.48 3339.91 1467.54 3303 1460.29M3303 1460.29C3292.97 1458.32 3282.6 1457.29 3272 1457.29C3261.4 1457.29 3251.03 1458.32 3241 1460.29M3303 1460.29H3241M3241 1460.29H2510.74M2510.74 1460.29C2413.04 1234.16 2214 1062.04 1970.85 1001.19M2510.74 1460.29C2552.73 1557.49 2576 1664.68 2576 1777.29C2576 1777.94 2576 1778.58 2576 1779.22M2510.74 1460.29H2319.8M1970.85 1001.19C2137.94 1104.4 2264.19 1267.38 2319.8 1460.29M1970.85 1001.19C1908.48 985.581 1843.21 977.293 1776 977.293C1769.84 977.293 1763.69 977.363 1757.56 977.501M1752.54 969.316C1754.25 972.017 1755.92 974.746 1757.56 977.501M1752.54 969.316C1747.34 972.324 1742.11 975.297 1736.86 978.234M1752.54 969.316C1734.41 940.684 1711.86 915.129 1685.84 893.609M1685.84 893.609C1630.49 847.813 1559.46 820.293 1482 820.293C1402.77 820.293 1330.26 849.09 1274.37 896.79M1685.84 893.609C1642.01 886.168 1596.96 882.293 1551 882.293C1455.17 882.293 1363.28 899.142 1278.12 930.039M1274.37 896.79C1272.84 881.419 1271.58 865.969 1270.59 850.442M1274.37 896.79C1275.48 907.916 1276.73 918.999 1278.12 930.039M1274.37 896.79C1255.1 913.232 1237.82 931.921 1222.91 952.45M1270.59 850.442C1343.84 729.633 1386 587.887 1386 436.293C1386 379.227 1380.03 323.557 1368.67 269.875M1270.59 850.442C1243.73 894.758 1212.68 936.256 1178 974.39M1270.59 850.442C1268.87 823.281 1268 795.889 1268 768.293C1268 591.491 1303.85 423.061 1368.67 269.875M1368.67 269.875C1381.9 238.595 1396.35 207.95 1411.94 178C1393.67 194.043 1375.85 210.599 1358.52 227.644M1368.67 269.875C1365.66 255.655 1362.27 241.574 1358.52 227.644M1358.52 227.644C1125.57 456.749 979.927 774.359 976.078 1126M969.958 1132.39C966.267 1136.29 962.615 1140.22 959.003 1144.2C964.714 1141.18 970.383 1138.1 976.011 1134.95M969.958 1132.39C971.986 1130.25 974.026 1128.12 976.078 1126M969.958 1132.39L971.435 1132.55C972.963 1132.72 974.491 1132.89 976.02 1133.05M976.011 1134.95C976.004 1136.73 976 1138.51 976 1140.29C976 1264.15 993.592 1383.9 1026.41 1497.17M976.011 1134.95C976.014 1134.32 976.017 1133.68 976.02 1133.05M976.011 1134.95C976.504 1134.67 976.996 1134.4 977.488 1134.12L978.86 1133.35M1026.41 1497.17C1061.51 1403.29 1113.75 1317.76 1179.31 1244.4M1026.41 1497.17C1133.45 1866.58 1402.44 2167.17 1751.46 2317.02M1776 2577.29C1794.83 2577.29 1813.5 2576.64 1832 2575.36M1832 2575.36C1832 2576.01 1832 2576.65 1832 2577.29M1832 2575.36C1832.12 2524.32 1837.02 2474.41 1846.28 2426.03M1832 2575.36C1988.76 2564.52 2133.08 2508.53 2252.07 2420.29M3108.25 2095.34C2881.92 2297.44 2583.31 2420.29 2256 2420.29C2254.69 2420.29 2253.38 2420.29 2252.07 2420.29M3108.25 2095.34C3070.22 2050.17 3027.29 2009.27 2980.27 1973.46M2980.27 1973.46C2902.49 1914.23 2813.54 1868.92 2717.13 1841.25M2980.27 1973.46C2845.24 2021.9 2699.7 2048.29 2548 2048.29C2541.65 2048.29 2535.31 2048.25 2528.98 2048.15M2717.13 1841.25L2564.24 1914.7M2717.13 1841.25C2671.35 1828.11 2623.9 1818.95 2575.17 1814.16M2576 1779.22C2575.97 1790.93 2575.69 1802.58 2575.17 1814.16M2576 1779.22C2506.31 1784.04 2439.08 1797.78 2375.45 1819.32M2319.8 1460.29C2340.11 1530.78 2351 1605.27 2351 1682.29C2351 1731.3 2346.59 1779.28 2338.15 1825.86M2319.8 1460.29H1482M1757.56 977.501C1785.79 1025.19 1802 1080.85 1802 1140.29C1802 1317.02 1658.73 1460.29 1482 1460.29M1757.56 977.501C1750.63 977.658 1743.73 977.902 1736.86 978.234M1736.86 978.234C1609.16 1049.65 1467.96 1099.82 1318.06 1123.96M1736.86 978.234C1581.23 985.731 1437.28 1037.7 1317.41 1121.7M1278.12 930.039C1286.39 995.599 1299.61 1059.61 1317.41 1121.7M1278.12 930.039C1259.38 936.839 1240.97 944.319 1222.91 952.45M1222.91 952.45C1207.68 959.307 1192.7 966.626 1178 974.39M1222.91 952.45C1184.76 1004.97 1162.2 1069.54 1162 1139.37M1178 974.39C1102.8 1014.09 1034.7 1065.43 976.078 1126M1178 974.39C1120.71 1037.38 1053.51 1091.19 978.86 1133.35M976.078 1126C976.052 1128.35 976.033 1130.7 976.02 1133.05M976.02 1133.05C976.967 1133.15 977.913 1133.25 978.86 1133.35M978.86 1133.35C1022.95 1137.94 1067.7 1140.29 1113 1140.29C1129.41 1140.29 1145.74 1139.98 1162 1139.37M1162 1139.37L1162 1140.01L1162 1140.29C1162 1176.74 1168.09 1211.76 1179.31 1244.4M1162 1139.37C1213.19 1137.45 1263.61 1132.51 1313.09 1124.75M1179.31 1244.4C1219.25 1199.71 1264.13 1159.54 1313.09 1124.75M1179.31 1244.4C1221.37 1366.69 1335.44 1455.48 1470.88 1460.1M1751.46 2317.02C1811.11 2165.73 1915.53 2036.98 2048.41 1947.13M1751.46 2317.02C1787.57 2332.52 1824.53 2346.41 1862.26 2358.59M1846.28 2426.03C1850.65 2403.19 1855.99 2380.7 1862.26 2358.59M1846.28 2426.03C1878.84 2413.1 1910.35 2398.08 1940.65 2381.15M2252.07 2420.29C2144.63 2419.96 2040.31 2406.4 1940.65 2381.15M2252.07 2420.29C2377.7 2327.12 2475.07 2198.01 2528.98 2048.15M2528.98 2048.15C2544.42 2005.25 2556.29 1960.65 2564.24 1914.7M2528.98 2048.15C2442.54 2046.9 2358.16 2037.07 2276.68 2019.48M2564.24 1914.7L2442.3 1973.29L2318.9 1907.37M2564.24 1914.7C2569.93 1881.83 2573.62 1848.27 2575.17 1814.16M2575.17 1814.16C2549.12 1811.6 2522.71 1810.29 2496 1810.29C2455.02 1810.29 2414.77 1813.37 2375.45 1819.32M2375.45 1819.32C2362.92 1821.21 2350.48 1823.39 2338.15 1825.86M2375.45 1819.32C2362.38 1823.74 2349.47 1828.48 2336.72 1833.55M2338.15 1825.86C2337.87 1827.45 2337.57 1829.04 2337.28 1830.62C2337.09 1831.6 2336.91 1832.58 2336.72 1833.55M2338.15 1825.86C2299.41 1833.62 2261.67 1844.17 2225.17 1857.3M1482 1460.29L2225.17 1857.3M1482 1460.29C1478.28 1460.29 1474.57 1460.23 1470.88 1460.1M1318.06 1123.96C1352.78 1244.22 1404.66 1357.22 1470.88 1460.1M1318.06 1123.96L1317.73 1122.8L1317.41 1121.7M1318.06 1123.96C1316.41 1124.22 1314.75 1124.49 1313.09 1124.75M1317.41 1121.7C1315.97 1122.71 1314.53 1123.72 1313.09 1124.75M1470.88 1460.1C1609.31 1675.2 1810.42 1846.14 2048.41 1947.13M2048.41 1947.13C2068.58 1955.69 2089.02 1963.75 2109.72 1971.29M2048.41 1947.13C2102.91 1910.27 2162.21 1879.95 2225.17 1857.3M1862.26 2358.59C1888.04 2366.92 1914.18 2374.45 1940.65 2381.15M1862.26 2358.59C1905.52 2206.06 1992.89 2072.07 2109.72 1971.29M1940.65 2381.15C2087.27 2299.23 2205.46 2172.49 2276.68 2019.48M2276.68 2019.48C2293.43 1983.49 2307.59 1946.04 2318.9 1907.37M2276.68 2019.48C2219.51 2007.14 2163.76 1990.98 2109.72 1971.29M2318.9 1907.37L2253.39 1872.38M2318.9 1907.37C2325.97 1883.22 2331.93 1858.59 2336.72 1833.55M2336.72 1833.55C2308.1 1844.93 2280.28 1857.9 2253.39 1872.38M2225.17 1857.3L2253.39 1872.38M2253.39 1872.38C2201.85 1900.12 2153.69 1933.35 2109.72 1971.29" stroke="black" stroke-width="4"/>
<mask id="path-3-outside-1" maskUnits="userSpaceOnUse" x="2294.29" y="1727.59" width="1101" height="696" fill="black">
<rect fill="white" x="2294.29" y="1727.59" width="1101" height="696"/>
<path fill-rule="evenodd" clip-rule="evenodd" d="M2734.94 2034.74C2620.19 2176.52 2475.08 2292.72 2309.5 2373.44C2407.41 2285.76 2483.6 2174.3 2528.98 2048.15C2535.31 2048.25 2541.65 2048.29 2548 2048.29C2611.5 2048.29 2673.92 2043.67 2734.94 2034.74ZM2777.35 2027.8C2847.12 2015.18 2914.92 1996.9 2980.27 1973.46C2981.33 1973.08 2982.39 1972.7 2983.44 1972.32C2828.59 2156.72 2621.51 2295.78 2384.97 2366.73C2537.78 2281.43 2671.3 2165.73 2777.35 2027.8ZM3037.65 1951.3C3057.31 1943.15 3076.73 1934.53 3095.88 1925.44C3203.76 1874.27 3303.34 1808.47 3392.06 1730.59C3339.08 1832.34 3272.83 1926.09 3195.6 2009.53C3167.86 2039.5 3138.71 2068.13 3108.25 2095.34C2891.01 2289.32 2607.18 2410.3 2295.29 2419.7C2595.28 2355.21 2856.22 2185.59 3037.65 1951.3Z"/>
</mask>
<path fill-rule="evenodd" clip-rule="evenodd" d="M2734.94 2034.74C2620.19 2176.52 2475.08 2292.72 2309.5 2373.44C2407.41 2285.76 2483.6 2174.3 2528.98 2048.15C2535.31 2048.25 2541.65 2048.29 2548 2048.29C2611.5 2048.29 2673.92 2043.67 2734.94 2034.74ZM2777.35 2027.8C2847.12 2015.18 2914.92 1996.9 2980.27 1973.46C2981.33 1973.08 2982.39 1972.7 2983.44 1972.32C2828.59 2156.72 2621.51 2295.78 2384.97 2366.73C2537.78 2281.43 2671.3 2165.73 2777.35 2027.8ZM3037.65 1951.3C3057.31 1943.15 3076.73 1934.53 3095.88 1925.44C3203.76 1874.27 3303.34 1808.47 3392.06 1730.59C3339.08 1832.34 3272.83 1926.09 3195.6 2009.53C3167.86 2039.5 3138.71 2068.13 3108.25 2095.34C2891.01 2289.32 2607.18 2410.3 2295.29 2419.7C2595.28 2355.21 2856.22 2185.59 3037.65 1951.3Z" fill="white"/>
<path d="M2734.94 2034.74L2737.27 2036.63L2742.1 2030.66L2734.5 2031.77L2734.94 2034.74ZM2309.5 2373.44L2307.5 2371.2L2310.81 2376.14L2309.5 2373.44ZM2528.98 2048.15L2529.03 2045.15L2526.88 2045.12L2526.16 2047.14L2528.98 2048.15ZM2777.35 2027.8L2776.81 2024.85L2775.67 2025.06L2774.97 2025.97L2777.35 2027.8ZM2980.27 1973.46L2979.26 1970.64L2979.26 1970.64L2980.27 1973.46ZM2983.44 1972.32L2985.74 1974.25L2992.92 1965.7L2982.42 1969.5L2983.44 1972.32ZM2384.97 2366.73L2383.51 2364.11L2385.84 2369.6L2384.97 2366.73ZM3037.65 1951.3L3036.5 1948.53L3035.76 1948.83L3035.28 1949.46L3037.65 1951.3ZM3095.88 1925.44L3094.6 1922.73L3094.6 1922.73L3095.88 1925.44ZM3392.06 1730.59L3394.72 1731.97L3390.08 1728.33L3392.06 1730.59ZM3195.6 2009.53L3197.8 2011.57L3197.8 2011.57L3195.6 2009.53ZM3108.25 2095.34L3106.25 2093.1L3106.25 2093.1L3108.25 2095.34ZM2295.29 2419.7L2294.66 2416.77L2295.38 2422.7L2295.29 2419.7ZM2732.6 2032.85C2618.13 2174.3 2473.37 2290.21 2308.18 2370.74L2310.81 2376.14C2476.79 2295.22 2622.25 2178.74 2737.27 2036.63L2732.6 2032.85ZM2311.5 2375.67C2409.78 2287.66 2486.25 2175.8 2531.81 2049.17L2526.16 2047.14C2480.95 2172.81 2405.05 2283.85 2307.5 2371.2L2311.5 2375.67ZM2528.94 2051.15C2535.28 2051.25 2541.64 2051.29 2548 2051.29V2045.29C2541.66 2045.29 2535.34 2045.25 2529.03 2045.15L2528.94 2051.15ZM2548 2051.29C2611.64 2051.29 2674.21 2046.66 2735.37 2037.71L2734.5 2031.77C2673.63 2040.68 2611.35 2045.29 2548 2045.29V2051.29ZM2777.88 2030.76C2847.82 2018.1 2915.78 1999.78 2981.28 1976.29L2979.26 1970.64C2914.07 1994.02 2846.42 2012.26 2776.81 2024.85L2777.88 2030.76ZM2981.28 1976.29C2982.34 1975.91 2983.4 1975.52 2984.46 1975.14L2982.42 1969.5C2981.37 1969.88 2980.31 1970.26 2979.26 1970.64L2981.28 1976.29ZM2981.15 1970.39C2826.66 2154.35 2620.08 2293.08 2384.11 2363.85L2385.84 2369.6C2622.94 2298.48 2830.52 2159.08 2985.74 1974.25L2981.15 1970.39ZM2386.44 2369.35C2539.6 2283.85 2673.43 2167.88 2779.72 2029.63L2774.97 2025.97C2669.17 2163.58 2535.96 2279.01 2383.51 2364.11L2386.44 2369.35ZM3038.8 1954.07C3058.51 1945.9 3077.97 1937.26 3097.17 1928.15L3094.6 1922.73C3075.49 1931.79 3056.12 1940.4 3036.5 1948.53L3038.8 1954.07ZM3097.17 1928.15C3205.3 1876.86 3305.11 1810.9 3394.04 1732.84L3390.08 1728.33C3301.57 1806.03 3202.22 1871.68 3094.6 1922.73L3097.17 1928.15ZM3389.4 1729.2C3336.54 1830.72 3270.44 1924.25 3193.4 2007.49L3197.8 2011.57C3275.21 1927.93 3341.61 1833.97 3394.72 1731.97L3389.4 1729.2ZM3193.4 2007.49C3165.72 2037.39 3136.64 2065.96 3106.25 2093.1L3110.25 2097.57C3140.78 2070.31 3170 2041.6 3197.8 2011.57L3193.4 2007.49ZM3106.25 2093.1C2889.52 2286.63 2606.35 2407.32 2295.2 2416.7L2295.38 2422.7C2608 2413.27 2892.5 2292.02 3110.25 2097.57L3106.25 2093.1ZM2295.92 2422.63C2596.62 2357.99 2858.17 2187.97 3040.02 1953.13L3035.28 1949.46C2854.27 2183.21 2593.94 2352.43 2294.66 2416.77L2295.92 2422.63Z" fill="black" mask="url(#path-3-outside-1)"/>
<ellipse cx="3016.5" cy="1602.79" rx="26.5" ry="28.5" fill="white"/>
<circle cx="2752" cy="1179.29" r="31" fill="#717171"/>
<circle cx="2889.5" cy="1290.79" r="45.5" fill="#717171"/>
<circle cx="2852.5" cy="1115.79" r="32.5" fill="#717171"/>
<circle cx="2939" cy="954.293" r="26" fill="#717171"/>
<path d="M1002.5 1942.29C1002.5 2037.68 925.176 2115 829.792 2115C734.408 2115 657.084 2037.68 657.084 1942.29" stroke="#717171" stroke-width="30"/>
<path d="M657.416 1942.29C657.416 2037.68 580.092 2115 484.708 2115C389.324 2115 312 2037.68 312 1942.29" stroke="#717171" stroke-width="30"/>
<path d="M4194.5 1942.29C4194.5 2037.68 4117.18 2115 4021.79 2115C3926.41 2115 3849.08 2037.68 3849.08 1942.29" stroke="#717171" stroke-width="30"/>
<path d="M3849.42 1942.29C3849.42 2037.68 3772.09 2115 3676.71 2115C3581.32 2115 3504 2037.68 3504 1942.29" stroke="#717171" stroke-width="30"/>
</svg>
